<svg xmlns="http://www.w3.org/2000/svg" xmlns:xlink="http://www.w3.org/1999/xlink" width="83" height="83" viewBox="0 0 83 83">
  <g id="Group_14" data-name="Group 14" transform="translate(-918.5 -1998)">
    <circle id="Ellipse_4" data-name="Ellipse 4" cx="41.5" cy="41.5" r="41.5" transform="translate(918.5 1998)" fill="#f9b849"/>
    <path id="Icon_awesome-shield-alt" data-name="Icon awesome-shield-alt" d="M32.8,5.885,19.3.26a3.386,3.386,0,0,0-2.595,0L3.206,5.885A3.371,3.371,0,0,0,1.125,9c0,13.957,8.051,23.6,15.574,26.74a3.386,3.386,0,0,0,2.595,0C25.32,33.23,34.875,24.56,34.875,9A3.376,3.376,0,0,0,32.8,5.885ZM18.007,31.38,18,4.591,30.368,9.745C30.136,20.391,24.6,28.1,18.007,31.38Z" transform="translate(942.05 2021.5)" fill="#fff"/>
  </g>
</svg>
