<svg xmlns="http://www.w3.org/2000/svg" xmlns:xlink="http://www.w3.org/1999/xlink" width="83" height="83" viewBox="0 0 83 83">
  <g id="Group_15" data-name="Group 15" transform="translate(-918.5 -1998)">
    <circle id="Ellipse_4" data-name="Ellipse 4" cx="41.5" cy="41.5" r="41.5" transform="translate(918.5 1998)" fill="#f9b749"/>
    <path id="Icon_ionic-ios-water" data-name="Icon ionic-ios-water" d="M28.9,11.89a38.7,38.7,0,0,0-7.857-8.359.74.74,0,0,0-.9-.009,38.223,38.223,0,0,0-7.831,8.351c-3.228,4.5-5.452,9.38-5.556,14.789,0,.1-.009.216-.009.32a11.309,11.309,0,0,0,.943,4.509,12.159,12.159,0,0,0,1.315,2.276,14.285,14.285,0,0,0,11.578,5.608c7.65,0,13.854-5.547,13.854-12.392C34.441,21.47,32.1,16.408,28.9,11.89ZM21.461,34.762h-.043a.759.759,0,0,1-.225-1.48A10.774,10.774,0,0,0,28.67,26.29a.753.753,0,0,1,1.454.268v.121A8.4,8.4,0,0,1,21.461,34.762Z" transform="translate(939.257 2018)" fill="#fff"/>
  </g>
</svg>
