<svg xmlns="http://www.w3.org/2000/svg" xmlns:xlink="http://www.w3.org/1999/xlink" width="83" height="83" viewBox="0 0 83 83">
  <g id="Group_13" data-name="Group 13" transform="translate(-918.5 -1998)">
    <circle id="Ellipse_4" data-name="Ellipse 4" cx="41.5" cy="41.5" r="41.5" transform="translate(918.5 1998)" fill="#f9b849"/>
    <path id="Icon_awesome-lemon" data-name="Icon awesome-lemon" d="M34.385,1.615C32.762-.009,30.561-.417,29.106.431,24.964,2.844,16.362-3.3,6.53,6.53S2.844,24.964.431,29.106c-.848,1.456-.44,3.656,1.184,5.28s3.824,2.031,5.28,1.183c4.141-2.412,12.744,3.732,22.575-6.1s3.687-18.434,6.1-22.575c.848-1.456.44-3.656-1.184-5.28Zm-17.238,5.1C13.056,7.739,7.74,13.055,6.716,17.148A1.125,1.125,0,1,1,4.534,16.6C5.759,11.7,11.694,5.761,16.6,4.534a1.125,1.125,0,0,1,.546,2.183Z" transform="translate(942.4 2021.5)" fill="#fff"/>
  </g>
</svg>
