<svg xmlns="http://www.w3.org/2000/svg" width="38.267" height="29.751" viewBox="0 0 38.267 29.751">
  <path id="Path_60" data-name="Path 60" d="M24.388,9.731a7.856,7.856,0,0,1-5.677-2.365Q16.294,5,16.294.585a20.823,20.823,0,0,1,3.942-12.3q3.942-5.572,13.3-8.305V-15.6q-9.987,3.259-9.987,9.462A2.808,2.808,0,0,0,24.7-3.725a17.453,17.453,0,0,0,2.681,1.577,8.793,8.793,0,0,1,2.681,2,5.265,5.265,0,0,1,1.156,3.679,5.605,5.605,0,0,1-1.945,4.626A7.511,7.511,0,0,1,24.388,9.731Zm-21.026,0A7.856,7.856,0,0,1-2.314,7.366Q-4.732,5-4.732.585A20.823,20.823,0,0,1-.79-11.715q3.942-5.572,13.3-8.305V-15.6Q2.522-12.346,2.522-6.143A2.808,2.808,0,0,0,3.678-3.725,17.453,17.453,0,0,0,6.359-2.148a8.793,8.793,0,0,1,2.681,2A5.265,5.265,0,0,1,10.2,3.529,5.605,5.605,0,0,1,8.251,8.154,7.511,7.511,0,0,1,3.363,9.731Z" transform="translate(4.732 20.02)" fill="#081be4"/>
</svg>
