<svg xmlns="http://www.w3.org/2000/svg" xmlns:xlink="http://www.w3.org/1999/xlink" width="53.626" height="17.494" viewBox="0 0 53.626 17.494"><defs><clipPath id="a"><path d="M35.249-9.316c-4.942,0-7.842-1.379-10.9-2.833a33.539,33.539,0,0,0-7.129-2.685C9.77-16.6,1.915-12.384,1.837-12.341A1.183,1.183,0,0,1,.23-12.814,1.184,1.184,0,0,1,.7-14.42c.353-.192,8.741-4.7,17.067-2.718a35.99,35.99,0,0,1,7.6,2.851c3.206,1.525,5.975,2.84,11.251,2.566A30.031,30.031,0,0,0,51.8-17.232a1.185,1.185,0,0,1,1.662.206,1.183,1.183,0,0,1-.2,1.661,31.905,31.905,0,0,1-16.514,6.01Q35.965-9.316,35.249-9.316Z" fill="none"/></clipPath><clipPath id="b"><path d="M-693,5599H747V-1089H-693Z" fill="none"/></clipPath><clipPath id="c"><path d="M35.249-.145c-4.942,0-7.842-1.379-10.9-2.833a33.539,33.539,0,0,0-7.129-2.685C9.77-7.432,1.915-3.213,1.837-3.17A1.184,1.184,0,0,1,.23-3.643,1.184,1.184,0,0,1,.7-5.249c.353-.193,8.741-4.695,17.067-2.718a35.99,35.99,0,0,1,7.6,2.851C28.575-3.592,31.343-2.275,36.62-2.55A30.028,30.028,0,0,0,51.8-8.061a1.185,1.185,0,0,1,1.662.206,1.183,1.183,0,0,1-.2,1.661A31.91,31.91,0,0,1,36.743-.185Q35.965-.144,35.249-.145Z" fill="none"/></clipPath></defs><g transform="translate(-0.085 17.639)"><g clip-path="url(#a)"><g clip-path="url(#b)"><path d="M-4.915-22.639H58.711V-4.316H-4.915Z" fill="#081be3"/></g></g><g clip-path="url(#c)"><g clip-path="url(#b)"><path d="M-4.915-13.468H58.711V4.855H-4.915Z" fill="#081be3"/></g></g></g></svg>